<svg width="1142" height="1003" viewBox="0 0 1142 1003" fill="none" xmlns="http://www.w3.org/2000/svg">
<path d="M2.5 990H1139.5C1067.9 613.251 1023.03 434.132 923 250.5C831.149 112.289 777.069 60.0118 675 21.4999C589.67 -3.65638 542.646 -4.60399 460.5 21.4999C329.357 80.3318 281.789 136.609 212 250.5C74.6392 523.52 48.9249 689.799 3.74269 981.965L2.5 990Z" fill="#F3F2F0"/>
<path d="M2.5 990H1139.5C1067.9 613.251 1023.03 434.132 923 250.5C831.149 112.289 777.069 60.0118 675 21.4999C589.67 -3.65638 542.646 -4.60399 460.5 21.4999C329.357 80.3318 281.789 136.609 212 250.5C74.6392 523.52 48.9249 689.799 3.74269 981.965M2.5 990L3.74269 981.965M2.5 990C2.91592 987.311 3.33012 984.633 3.74269 981.965" stroke="#F3F2F0" stroke-width="4"/>
<path d="M143.5 552L232 663.5L157.5 888L88 880L143.5 552Z" fill="#E0E0E0"/>
<path d="M992.5 552.5L904 664L978.5 888.5L1048 880.5L992.5 552.5Z" fill="#E0E0E0"/>
<path d="M560 465V264L157.5 525.5L248 649L560 465Z" fill="#E0E0E0"/>
<path d="M579 465V264L981.5 525.5L891 649L579 465Z" fill="#E0E0E0"/>
<path d="M143.5 552L232 663.5L157.5 888L88 880L143.5 552Z" stroke="#E0E0E0" stroke-width="4"/>
<path d="M992.5 552.5L904 664L978.5 888.5L1048 880.5L992.5 552.5Z" stroke="#E0E0E0" stroke-width="4"/>
<path d="M560 465V264L157.5 525.5L248 649L560 465Z" stroke="#E0E0E0" stroke-width="4"/>
<path d="M579 465V264L981.5 525.5L891 649L579 465Z" stroke="#E0E0E0" stroke-width="4"/>
<rect y="992" width="1142" height="10" fill="#F3F2F0"/>
<path d="M1142 992L1138 972L1139 991L1142 992Z" fill="#F3F2F0" stroke="#F3F2F0" stroke-width="0.0001"/>
<path d="M0 992L0.982777 987.086L0.5 992H0Z" fill="#F3F2F0"/>
</svg>
