<svg xmlns="http://www.w3.org/2000/svg" xmlns:xlink="http://www.w3.org/1999/xlink" width="795" zoomAndPan="magnify" viewBox="0 0 596.25 116.249996" height="155" preserveAspectRatio="xMidYMid meet" version="1.0"><defs><g/></defs><path fill="#ce4863" d="M 563.910156 47.234375 C 564.335938 49.941406 564.421875 52.773438 564.078125 55.632812 C 562.117188 72.363281 546.964844 84.316406 530.234375 82.355469 C 516.722656 80.757812 506.320312 70.570312 503.851562 57.890625 C 503.871094 57.867188 537.585938 64.027344 563.910156 47.234375 M 493.597656 50.621094 C 484.285156 45.230469 492.171875 38.558594 501.121094 38.132812 C 498.820312 38.878906 488.570312 45.804688 503.1875 49.941406 C 503.253906 49.960938 503.339844 49.984375 503.402344 50.003906 C 503.445312 49.515625 503.488281 49.023438 503.53125 48.511719 C 505.492188 31.78125 520.644531 19.824219 537.375 21.785156 C 550.652344 23.34375 560.925781 33.230469 563.609375 45.59375 C 557.558594 49.707031 545.109375 53.371094 532.175781 54.714844 C 516.9375 56.292969 500.972656 54.886719 493.597656 50.621094 Z M 493.597656 50.621094 " fill-opacity="1" fill-rule="evenodd"/><path fill="#ce4863" d="M 572.027344 28.414062 C 575.140625 30.097656 580.171875 33.339844 582.171875 32.359375 C 583.707031 31.589844 585.265625 30.824219 586.820312 30.054688 C 591.785156 27.625 593.617188 31.738281 589.378906 34.59375 L 585.476562 37.324219 C 583.644531 38.601562 583.898438 43.929688 584.027344 47.46875 C 584.09375 49.046875 583.496094 49.917969 582.707031 50.472656 C 582.300781 50.75 582.109375 50.6875 581.980469 50.21875 C 581.171875 47.105469 580.382812 43.996094 579.574219 40.882812 C 579.425781 40.265625 579.234375 40.007812 578.613281 40.308594 C 576.441406 41.371094 574.265625 42.417969 572.09375 43.484375 C 571.921875 43.566406 571.835938 43.652344 571.878906 43.84375 C 572.15625 45.890625 571.878906 48.042969 570.496094 48.8125 C 570.175781 48.980469 569.984375 49.003906 569.917969 48.578125 C 569.726562 47.296875 569.683594 45.613281 569.472656 44.441406 C 568.535156 44.699219 568.042969 43.910156 568.597656 43.183594 L 565.144531 41.351562 C 564.355469 40.925781 564.804688 40.519531 565.421875 40.328125 C 566.742188 39.921875 568.617188 40.542969 570.109375 41.351562 C 570.34375 41.480469 570.472656 41.5 570.6875 41.332031 L 576.695312 36.511719 C 577.1875 36.109375 577.058594 35.960938 576.632812 35.617188 L 568.640625 29.097656 C 568.191406 28.734375 568.320312 28.5 568.832031 28.285156 C 569.855469 27.859375 570.730469 27.691406 572.027344 28.414062 " fill-opacity="1" fill-rule="evenodd"/><g fill="#ce4863" fill-opacity="1"><g transform="translate(21.310897, 76.754797)"><g><path d="M 34.78125 0 L 4.96875 0 L 4.96875 -44.5625 L 34.78125 -44.5625 C 46.96875 -44.5625 55.734375 -42.851562 61.078125 -39.4375 C 65.378906 -36.6875 67.832031 -32.9375 68.4375 -28.1875 C 68.707031 -26.144531 68.84375 -24.171875 68.84375 -22.265625 C 68.84375 -20.378906 68.710938 -18.40625 68.453125 -16.34375 C 68.191406 -14.289062 67.503906 -12.296875 66.390625 -10.359375 C 65.273438 -8.421875 63.5 -6.675781 61.0625 -5.125 C 58.632812 -3.570312 55.300781 -2.328125 51.0625 -1.390625 C 46.832031 -0.460938 41.40625 0 34.78125 0 Z M 33.015625 -11.015625 C 42.515625 -11.015625 47.882812 -13.421875 49.125 -18.234375 C 49.457031 -19.578125 49.625 -20.921875 49.625 -22.265625 C 49.625 -23.628906 49.453125 -24.976562 49.109375 -26.3125 C 48.765625 -27.644531 48.035156 -28.851562 46.921875 -29.9375 C 45.816406 -31.03125 44.15625 -31.898438 41.9375 -32.546875 C 39.726562 -33.203125 36.753906 -33.53125 33.015625 -33.53125 L 23.65625 -33.53125 L 23.65625 -11.015625 Z M 33.015625 -11.015625 "/></g></g></g><g fill="#ce4863" fill-opacity="1"><g transform="translate(92.627658, 76.754797)"><g><path d="M 33.6875 0.96875 C 22.675781 0.96875 14.570312 -1.300781 9.375 -5.84375 C 4.78125 -9.851562 2.484375 -15.328125 2.484375 -22.265625 C 2.484375 -29.179688 4.78125 -34.644531 9.375 -38.65625 C 14.570312 -43.1875 22.675781 -45.453125 33.6875 -45.453125 C 44.695312 -45.453125 52.800781 -43.1875 58 -38.65625 C 62.59375 -34.644531 64.890625 -29.179688 64.890625 -22.265625 C 64.890625 -15.328125 62.59375 -9.851562 58 -5.84375 C 52.800781 -1.300781 44.695312 0.96875 33.6875 0.96875 Z M 33.6875 -11 C 38.195312 -11 41.507812 -12.289062 43.625 -14.875 C 45.320312 -16.96875 46.171875 -19.429688 46.171875 -22.265625 C 46.171875 -25.097656 45.320312 -27.550781 43.625 -29.625 C 41.507812 -32.226562 38.195312 -33.53125 33.6875 -33.53125 C 29.175781 -33.53125 25.851562 -32.226562 23.71875 -29.625 C 22.019531 -27.550781 21.171875 -25.097656 21.171875 -22.265625 C 21.171875 -19.429688 22.019531 -16.96875 23.71875 -14.875 C 25.851562 -12.289062 29.175781 -11 33.6875 -11 Z M 33.6875 -11 "/></g></g></g><g fill="#ce4863" fill-opacity="1"><g transform="translate(160.001345, 76.754797)"><g><path d="M 71.078125 0 L 48.84375 0 L 23.65625 -30.15625 L 23.65625 0 L 4.96875 0 L 4.96875 -44.5625 L 27.203125 -44.5625 L 52.390625 -14.5625 L 52.390625 -44.5625 L 71.078125 -44.5625 Z M 71.078125 0 "/></g></g></g><g fill="#ce4863" fill-opacity="1"><g transform="translate(236.03738, 76.754797)"><g><path d="M 71.078125 0 L 48.84375 0 L 23.65625 -30.15625 L 23.65625 0 L 4.96875 0 L 4.96875 -44.5625 L 27.203125 -44.5625 L 52.390625 -14.5625 L 52.390625 -44.5625 L 71.078125 -44.5625 Z M 71.078125 0 "/></g></g></g><g fill="#ce4863" fill-opacity="1"><g transform="translate(312.073416, 76.754797)"><g><path d="M 74.828125 0 L 55.890625 0 L 51.703125 -7.296875 L 23.59375 -7.296875 L 19.40625 0 L 0.46875 0 L 28.96875 -44.53125 L 46.328125 -44.53125 Z M 45.390625 -18.328125 L 37.671875 -31.828125 L 29.90625 -18.328125 Z M 45.390625 -18.328125 "/></g></g></g><g fill="#ce4863" fill-opacity="1"><g transform="translate(387.364304, 76.754797)"><g><path d="M 23.65625 0 L 4.96875 0 L 4.96875 -44.5625 L 23.65625 -44.5625 Z M 23.65625 0 "/></g></g></g><g fill="#ce4863" fill-opacity="1"><g transform="translate(415.990348, 76.754797)"><g><path d="M 65.796875 0 L 48.125 0 C 47.320312 -1.113281 46.753906 -2.539062 46.421875 -4.28125 C 46.128906 -5.625 45.691406 -6.941406 45.109375 -8.234375 C 44.535156 -9.535156 43.539062 -10.613281 42.125 -11.46875 C 40.707031 -12.332031 38.597656 -12.796875 35.796875 -12.859375 L 23.65625 -12.859375 L 23.65625 0 L 4.96875 0 L 4.96875 -44.5625 L 35.375 -44.5625 C 42.632812 -44.5625 48.492188 -44.015625 52.953125 -42.921875 C 57.421875 -41.835938 60.675781 -40.128906 62.71875 -37.796875 C 64.769531 -35.472656 65.796875 -32.4375 65.796875 -28.6875 C 65.796875 -25.5625 65.085938 -22.929688 63.671875 -20.796875 C 62.253906 -18.671875 60.015625 -16.988281 56.953125 -15.75 C 59.910156 -14.519531 61.828125 -13.050781 62.703125 -11.34375 C 63.585938 -9.632812 64.132812 -7.757812 64.34375 -5.71875 C 64.550781 -3.894531 65.035156 -1.988281 65.796875 0 Z M 23.65625 -23.84375 L 34.34375 -23.875 C 37.320312 -23.875 39.671875 -24.007812 41.390625 -24.28125 C 43.109375 -24.550781 44.375 -24.914062 45.1875 -25.375 C 46.007812 -25.84375 46.535156 -26.363281 46.765625 -26.9375 C 46.992188 -27.507812 47.109375 -28.09375 47.109375 -28.6875 C 47.109375 -29.289062 46.992188 -29.878906 46.765625 -30.453125 C 46.535156 -31.035156 46.007812 -31.5625 45.1875 -32.03125 C 44.375 -32.5 43.109375 -32.863281 41.390625 -33.125 C 39.671875 -33.394531 37.320312 -33.53125 34.34375 -33.53125 L 23.65625 -33.53125 Z M 23.65625 -23.84375 "/></g></g></g></svg>