<svg width="178" height="12" viewBox="0 0 178 12" fill="none" xmlns="http://www.w3.org/2000/svg">
<path d="M0.666667 6C0.666667 8.94552 3.05448 11.3333 6 11.3333C8.94552 11.3333 11.3333 8.94552 11.3333 6C11.3333 3.05448 8.94552 0.666667 6 0.666667C3.05448 0.666667 0.666667 3.05448 0.666667 6ZM166.667 6C166.667 8.94552 169.054 11.3333 172 11.3333C174.946 11.3333 177.333 8.94552 177.333 6C177.333 3.05448 174.946 0.666667 172 0.666667C169.054 0.666667 166.667 3.05448 166.667 6ZM6 7H172V5H6V7Z" fill="#626262"/>
</svg>
