<svg width="1143" height="720" viewBox="0 0 1143 720" fill="none" xmlns="http://www.w3.org/2000/svg">
<path d="M3 2H1140C1068.4 275.105 1023.53 404.948 923.5 538.063C831.649 638.251 777.569 676.147 675.5 704.064C590.17 722.3 543.146 722.987 461 704.064C329.857 661.417 282.289 620.622 212.5 538.063C75.1392 340.151 49.4249 219.615 4.24269 7.82472L3 2Z" fill="#F3F2F0"/>
<path d="M3 2H1140C1068.4 275.105 1023.53 404.948 923.5 538.063C831.649 638.251 777.569 676.147 675.5 704.064C590.17 722.3 543.146 722.987 461 704.064C329.857 661.417 282.289 620.622 212.5 538.063C75.1392 340.151 49.4249 219.615 4.24269 7.82472M3 2L4.24269 7.82472M3 2C3.41592 3.94928 3.83012 5.89078 4.24269 7.82472" stroke="#F3F2F0" stroke-width="4"/>
</svg>
