<svg width="26" height="17" viewBox="0 0 26 17" fill="none" xmlns="http://www.w3.org/2000/svg">
<path d="M21.3489 6.28785H16.3884L11.8268 0.62614C11.7659 0.550762 11.6781 0.488119 11.5722 0.444553C11.4662 0.400988 11.3459 0.378046 11.2235 0.378052L8.38056 0.378052C7.91919 0.378052 7.58629 0.691086 7.71303 1.00566L9.84107 6.28785H5.37664L3.50163 4.51491C3.37056 4.39087 3.16439 4.31792 2.94608 4.31792H1.21039C0.758567 4.31792 0.426968 4.61895 0.536777 4.92983L1.90441 8.25778L0.536777 11.5857C0.426968 11.8966 0.758567 12.1976 1.21039 12.1976H2.94608C3.16483 12.1976 3.37056 12.1247 3.50163 12.0007L5.37664 10.2277H9.84107L7.71303 15.5096C7.58629 15.8242 7.91919 16.1375 8.38056 16.1375H11.2235C11.4726 16.1375 11.7026 16.0427 11.8263 15.8894L16.3884 10.2277H21.3489C22.8832 10.2277 25.5156 9.34586 25.5156 8.25778C25.5156 7.1697 22.8832 6.28785 21.3489 6.28785Z" fill="#CE4863"/>
</svg>
