<svg width="22" height="19" viewBox="0 0 22 19" fill="none" xmlns="http://www.w3.org/2000/svg">
<path d="M16.9309 1.82404L13.1778 4.83095L5.73294 3.31246C5.63375 3.2923 5.52311 3.29814 5.41223 3.3294C5.30134 3.36066 5.19415 3.41622 5.10149 3.49046L2.95057 5.21373C2.6015 5.4934 2.57043 5.93203 2.8882 6.09321L8.2241 8.79974L4.84633 11.5059L2.17716 11.3011C1.99049 11.2867 1.78305 11.3565 1.61787 11.4888L0.304663 12.5409C-0.0371859 12.8148 -0.0757383 13.2436 0.226624 13.4122L3.60876 15.1011L4.92141 18.4481C5.05761 18.7498 5.52083 18.7766 5.86267 18.5027L7.17588 17.4506C7.34139 17.318 7.44559 17.1381 7.45727 16.9648L7.62534 14.4868L11.0031 11.7806L13.1186 17.0668C13.2446 17.3816 13.7175 17.4169 14.0666 17.1373L16.2175 15.414C16.406 15.263 16.5132 15.0518 16.4987 14.8608L15.9568 7.81183L19.7099 4.80492C20.8707 3.87488 22.2404 1.612 21.4729 0.788768C20.7054 -0.0344683 18.0917 0.893998 16.9309 1.82404Z" fill="#CE4863"/>
</svg>
