<svg width="629" height="123" viewBox="0 0 629 123" fill="none" xmlns="http://www.w3.org/2000/svg">
<path fill-rule="evenodd" clip-rule="evenodd" d="M594.884 49.977C595.333 52.8412 595.423 55.8377 595.061 58.8631C592.992 76.565 577.008 89.2122 559.358 87.1374C545.104 85.447 534.131 74.6679 531.526 61.252C531.547 61.2272 567.114 67.7451 594.884 49.977ZM520.709 53.5604C510.885 47.8568 519.205 40.7975 528.646 40.347C526.219 41.1364 515.406 48.4643 530.826 52.8412C530.896 52.8619 530.986 52.8867 531.052 52.9074C531.098 52.3907 531.143 51.87 531.188 51.3285C533.257 33.6266 549.242 20.9753 566.891 23.0501C580.898 24.6992 591.735 35.16 594.566 48.2411C588.183 52.5932 575.05 56.4701 561.406 57.8918C545.331 59.5616 528.489 58.0737 520.709 53.5604Z" fill="white"/>
<path fill-rule="evenodd" clip-rule="evenodd" d="M603.447 30.0639C606.731 31.8453 612.039 35.2757 614.149 34.2383C615.768 33.4241 617.413 32.614 619.053 31.7998C624.29 29.229 626.223 33.5812 621.752 36.6024L617.635 39.4914C615.702 40.8429 615.97 46.4804 616.106 50.225C616.176 51.8948 615.546 52.8164 614.713 53.4033C614.285 53.6968 614.083 53.6307 613.947 53.1347C613.094 49.8406 612.261 46.5507 611.408 43.2567C611.252 42.6036 611.05 42.3309 610.395 42.6491C608.104 43.7733 605.808 44.881 603.517 46.0093C603.336 46.0961 603.245 46.187 603.29 46.3895C603.583 48.5552 603.29 50.8326 601.832 51.6468C601.494 51.8245 601.292 51.8493 601.222 51.3988C601.02 50.0432 600.975 48.2618 600.752 47.0219C599.763 47.2947 599.244 46.4598 599.829 45.691L596.186 43.7526C595.354 43.3021 595.828 42.8723 596.479 42.6698C597.872 42.2399 599.85 42.8971 601.424 43.7526C601.671 43.889 601.807 43.9097 602.034 43.732L608.371 38.6318C608.891 38.2061 608.755 38.049 608.306 37.6853L599.874 30.7872C599.4 30.4028 599.536 30.1548 600.076 29.9275C601.156 29.477 602.079 29.2993 603.447 30.0639Z" fill="white"/>
<path d="M59.1731 81.2115H27.7231V34.0615H59.1731C72.0301 34.0615 81.2772 35.8718 86.9144 39.4841C91.4514 42.3938 94.0393 46.3615 94.678 51.3873C94.9624 53.5489 95.1066 55.6361 95.1066 57.6531C95.1066 59.6493 94.9665 61.7365 94.6945 63.9188C94.4184 66.0928 93.6931 68.2006 92.5187 70.2506C91.3402 72.3006 89.4693 74.1481 86.8979 75.7889C84.3348 77.4339 80.8197 78.7482 76.3487 79.7402C71.8858 80.7238 66.162 81.2115 59.1731 81.2115ZM57.3105 69.5563C67.3323 69.5563 72.9943 67.0103 74.3047 61.9184C74.655 60.4966 74.8322 59.0748 74.8322 57.6531C74.8322 56.2106 74.6509 54.7847 74.2883 53.3712C73.9256 51.9618 73.155 50.6847 71.9806 49.5357C70.8144 48.3785 69.0631 47.4609 66.7225 46.7748C64.3901 46.0805 61.2542 45.7333 57.3105 45.7333H47.4371V69.5563H57.3105Z" fill="white"/>
<path d="M133.253 82.2365C121.637 82.2365 113.086 79.8352 107.606 75.0285C102.759 70.7879 100.336 64.9934 100.336 57.6531C100.336 50.3375 102.759 44.5554 107.606 40.3107C113.086 35.5164 121.637 33.1192 133.253 33.1192C144.866 33.1192 153.417 35.5164 158.901 40.3107C163.747 44.5554 166.17 50.3375 166.17 57.6531C166.17 64.9934 163.747 70.7879 158.901 75.0285C153.417 79.8352 144.866 82.2365 133.253 82.2365ZM133.253 69.5728C138.009 69.5728 141.503 68.2089 143.737 65.4728C145.525 63.2575 146.424 60.6537 146.424 57.6531C146.424 54.6566 145.525 52.061 143.737 49.8664C141.503 47.1138 138.009 45.7333 133.253 45.7333C128.494 45.7333 124.987 47.1138 122.737 49.8664C120.945 52.061 120.05 54.6566 120.05 57.6531C120.05 60.6537 120.945 63.2575 122.737 65.4728C124.987 68.2089 128.494 69.5728 133.253 69.5728Z" fill="white"/>
<path d="M243.772 81.2115H220.316L193.745 49.3043V81.2115H174.031V34.0615H197.487L224.058 65.8035V34.0615H243.772V81.2115Z" fill="white"/>
<path d="M323.984 81.2115H300.529L273.958 49.3043V81.2115H254.244V34.0615H277.699L304.27 65.8035V34.0615H323.984V81.2115Z" fill="white"/>
<path d="M408.153 81.2115H388.175L383.757 73.491H354.104L349.687 81.2115H329.709L359.774 34.0946H378.087L408.153 81.2115ZM377.098 61.8192L368.956 47.5353L360.763 61.8192H377.098Z" fill="white"/>
<path d="M433.597 81.2115H413.883V34.0615H433.597V81.2115Z" fill="white"/>
<path d="M508.25 81.2115H489.608C488.759 80.0336 488.161 78.525 487.811 76.6817C487.502 75.2599 487.04 73.8671 486.426 72.499C485.821 71.1227 484.77 69.982 483.278 69.0769C481.782 68.1634 479.557 67.6716 476.602 67.6055H463.795V81.2115H444.081V34.0615H476.157C483.814 34.0615 489.995 34.6402 494.701 35.7974C499.415 36.9464 502.848 38.7526 505.003 41.22C507.166 43.6792 508.25 46.8906 508.25 50.8583C508.25 54.1648 507.5 56.9504 506.009 59.2071C504.513 61.4555 502.151 63.2368 498.921 64.547C502.04 65.8489 504.064 67.403 504.987 69.2091C505.918 71.0194 506.495 73.0033 506.717 75.1607C506.936 77.0909 507.447 79.1078 508.25 81.2115ZM463.795 55.9833L475.07 55.9502C478.21 55.9502 480.69 55.8097 482.503 55.5204C484.317 55.2352 485.652 54.8508 486.509 54.3631C487.374 53.8672 487.931 53.3175 488.174 52.7099C488.413 52.1065 488.536 51.4865 488.536 50.8583C488.536 50.2218 488.413 49.5977 488.174 48.9902C487.931 48.3743 487.374 47.8164 486.509 47.3204C485.652 46.8244 484.317 46.4401 482.503 46.1631C480.69 45.878 478.21 45.7333 475.07 45.7333H463.795V55.9833Z" fill="white"/>
</svg>
