<svg xmlns="http://www.w3.org/2000/svg" xmlns:xlink="http://www.w3.org/1999/xlink" width="795" zoomAndPan="magnify" viewBox="0 0 596.25 122.249994" height="163" preserveAspectRatio="xMidYMid meet" version="1.0"><defs><g/></defs><path fill="#ce4863" d="M 563.992188 47.25 C 564.417969 49.957031 564.503906 52.792969 564.164062 55.648438 C 562.203125 72.382812 547.042969 84.34375 530.308594 82.382812 C 516.792969 80.785156 506.386719 70.59375 503.914062 57.910156 C 503.9375 57.886719 537.664062 64.046875 563.992188 47.25 M 493.660156 50.636719 C 484.34375 45.246094 492.230469 38.570312 501.1875 38.144531 C 498.882812 38.890625 488.628906 45.820312 503.253906 49.957031 C 503.316406 49.976562 503.402344 50 503.46875 50.019531 C 503.507812 49.53125 503.550781 49.039062 503.59375 48.527344 C 505.554688 31.792969 520.714844 19.832031 537.449219 21.792969 C 550.730469 23.351562 561.007812 33.242188 563.695312 45.605469 C 557.640625 49.722656 545.1875 53.390625 532.246094 54.730469 C 517.003906 56.308594 501.035156 54.902344 493.660156 50.636719 Z M 493.660156 50.636719 " fill-opacity="1" fill-rule="evenodd"/><path fill="#ce4863" d="M 572.113281 28.421875 C 575.226562 30.109375 580.257812 33.347656 582.261719 32.367188 C 583.796875 31.601562 585.355469 30.832031 586.910156 30.066406 C 591.878906 27.636719 593.710938 31.75 589.46875 34.605469 L 585.566406 37.335938 C 583.734375 38.613281 583.988281 43.945312 584.117188 47.484375 C 584.183594 49.0625 583.585938 49.933594 582.796875 50.488281 C 582.390625 50.765625 582.199219 50.703125 582.070312 50.234375 C 581.261719 47.121094 580.472656 44.007812 579.664062 40.894531 C 579.511719 40.277344 579.320312 40.023438 578.703125 40.320312 C 576.527344 41.386719 574.355469 42.429688 572.179688 43.496094 C 572.007812 43.582031 571.921875 43.667969 571.964844 43.859375 C 572.242188 45.90625 571.964844 48.058594 570.582031 48.828125 C 570.261719 48.996094 570.070312 49.019531 570.003906 48.59375 C 569.8125 47.3125 569.769531 45.628906 569.558594 44.457031 C 568.617188 44.710938 568.128906 43.921875 568.683594 43.199219 L 565.230469 41.363281 C 564.441406 40.9375 564.886719 40.53125 565.507812 40.339844 C 566.828125 39.9375 568.703125 40.554688 570.195312 41.363281 C 570.429688 41.492188 570.558594 41.515625 570.773438 41.34375 L 576.785156 36.523438 C 577.273438 36.121094 577.144531 35.972656 576.71875 35.628906 L 568.726562 29.105469 C 568.277344 28.742188 568.40625 28.507812 568.917969 28.296875 C 569.941406 27.871094 570.816406 27.699219 572.113281 28.421875 " fill-opacity="1" fill-rule="evenodd"/><g fill="#ce4863" fill-opacity="1"><g transform="translate(21.223785, 76.778949)"><g><path d="M 34.78125 0 L 4.96875 0 L 4.96875 -44.5625 L 34.78125 -44.5625 C 46.976562 -44.5625 55.75 -42.851562 61.09375 -39.4375 C 65.394531 -36.6875 67.847656 -32.941406 68.453125 -28.203125 C 68.722656 -26.148438 68.859375 -24.171875 68.859375 -22.265625 C 68.859375 -20.378906 68.726562 -18.40625 68.46875 -16.34375 C 68.207031 -14.289062 67.519531 -12.296875 66.40625 -10.359375 C 65.289062 -8.421875 63.515625 -6.675781 61.078125 -5.125 C 58.640625 -3.570312 55.300781 -2.328125 51.0625 -1.390625 C 46.832031 -0.460938 41.40625 0 34.78125 0 Z M 33.015625 -11.03125 C 42.515625 -11.03125 47.890625 -13.429688 49.140625 -18.234375 C 49.460938 -19.578125 49.625 -20.921875 49.625 -22.265625 C 49.625 -23.628906 49.453125 -24.976562 49.109375 -26.3125 C 48.773438 -27.65625 48.050781 -28.867188 46.9375 -29.953125 C 45.832031 -31.046875 44.171875 -31.914062 41.953125 -32.5625 C 39.742188 -33.21875 36.765625 -33.546875 33.015625 -33.546875 L 23.671875 -33.546875 L 23.671875 -11.03125 Z M 33.015625 -11.03125 "/></g></g></g><g fill="#ce4863" fill-opacity="1"><g transform="translate(92.562989, 76.778949)"><g><path d="M 33.703125 0.96875 C 22.679688 0.96875 14.570312 -1.300781 9.375 -5.84375 C 4.78125 -9.851562 2.484375 -15.328125 2.484375 -22.265625 C 2.484375 -29.179688 4.78125 -34.648438 9.375 -38.671875 C 14.570312 -43.203125 22.679688 -45.46875 33.703125 -45.46875 C 44.710938 -45.46875 52.816406 -43.203125 58.015625 -38.671875 C 62.609375 -34.648438 64.90625 -29.179688 64.90625 -22.265625 C 64.90625 -15.328125 62.609375 -9.851562 58.015625 -5.84375 C 52.816406 -1.300781 44.710938 0.96875 33.703125 0.96875 Z M 33.703125 -11 C 38.210938 -11 41.523438 -12.289062 43.640625 -14.875 C 45.335938 -16.96875 46.1875 -19.429688 46.1875 -22.265625 C 46.1875 -25.109375 45.335938 -27.5625 43.640625 -29.625 C 41.523438 -32.238281 38.210938 -33.546875 33.703125 -33.546875 C 29.179688 -33.546875 25.859375 -32.238281 23.734375 -29.625 C 22.035156 -27.5625 21.1875 -25.109375 21.1875 -22.265625 C 21.1875 -19.429688 22.035156 -16.96875 23.734375 -14.875 C 25.859375 -12.289062 29.179688 -11 33.703125 -11 Z M 33.703125 -11 "/></g></g></g><g fill="#ce4863" fill-opacity="1"><g transform="translate(159.957878, 76.778949)"><g><path d="M 71.09375 0 L 48.859375 0 L 23.671875 -30.15625 L 23.671875 0 L 4.96875 0 L 4.96875 -44.5625 L 27.203125 -44.5625 L 52.390625 -14.5625 L 52.390625 -44.5625 L 71.09375 -44.5625 Z M 71.09375 0 "/></g></g></g><g fill="#ce4863" fill-opacity="1"><g transform="translate(236.017842, 76.778949)"><g><path d="M 71.09375 0 L 48.859375 0 L 23.671875 -30.15625 L 23.671875 0 L 4.96875 0 L 4.96875 -44.5625 L 27.203125 -44.5625 L 52.390625 -14.5625 L 52.390625 -44.5625 L 71.09375 -44.5625 Z M 71.09375 0 "/></g></g></g><g fill="#ce4863" fill-opacity="1"><g transform="translate(312.077805, 76.778949)"><g><path d="M 74.859375 0 L 55.90625 0 L 51.71875 -7.296875 L 23.609375 -7.296875 L 19.40625 0 L 0.46875 0 L 28.984375 -44.53125 L 46.34375 -44.53125 Z M 45.40625 -18.328125 L 37.671875 -31.828125 L 29.90625 -18.328125 Z M 45.40625 -18.328125 "/></g></g></g><g fill="#ce4863" fill-opacity="1"><g transform="translate(387.392387, 76.778949)"><g><path d="M 23.671875 0 L 4.96875 0 L 4.96875 -44.5625 L 23.671875 -44.5625 Z M 23.671875 0 "/></g></g></g><g fill="#ce4863" fill-opacity="1"><g transform="translate(416.02744, 76.778949)"><g><path d="M 65.8125 0 L 48.140625 0 C 47.335938 -1.113281 46.769531 -2.539062 46.4375 -4.28125 C 46.144531 -5.632812 45.707031 -6.957031 45.125 -8.25 C 44.550781 -9.539062 43.550781 -10.613281 42.125 -11.46875 C 40.707031 -12.332031 38.601562 -12.796875 35.8125 -12.859375 L 23.671875 -12.859375 L 23.671875 0 L 4.96875 0 L 4.96875 -44.5625 L 35.375 -44.5625 C 42.644531 -44.5625 48.507812 -44.019531 52.96875 -42.9375 C 57.4375 -41.851562 60.691406 -40.144531 62.734375 -37.8125 C 64.785156 -35.488281 65.8125 -32.453125 65.8125 -28.703125 C 65.8125 -25.578125 65.101562 -22.945312 63.6875 -20.8125 C 62.269531 -18.675781 60.03125 -16.988281 56.96875 -15.75 C 59.925781 -14.53125 61.84375 -13.066406 62.71875 -11.359375 C 63.601562 -9.648438 64.148438 -7.769531 64.359375 -5.71875 C 64.566406 -3.894531 65.050781 -1.988281 65.8125 0 Z M 23.671875 -23.859375 L 34.34375 -23.890625 C 37.332031 -23.890625 39.6875 -24.019531 41.40625 -24.28125 C 43.125 -24.550781 44.390625 -24.921875 45.203125 -25.390625 C 46.023438 -25.859375 46.546875 -26.375 46.765625 -26.9375 C 46.992188 -27.507812 47.109375 -28.097656 47.109375 -28.703125 C 47.109375 -29.296875 46.992188 -29.882812 46.765625 -30.46875 C 46.546875 -31.050781 46.023438 -31.570312 45.203125 -32.03125 C 44.390625 -32.5 43.125 -32.867188 41.40625 -33.140625 C 39.6875 -33.410156 37.332031 -33.546875 34.34375 -33.546875 L 23.671875 -33.546875 Z M 23.671875 -23.859375 "/></g></g></g><g fill="#ce4863" fill-opacity="1"><g transform="translate(268.779544, 106.248201)"><g><path d="M 19.828125 0 L 19.828125 -7.390625 C 19.828125 -8.304688 19.859375 -9.242188 19.921875 -10.203125 C 19.992188 -11.171875 20.066406 -11.984375 20.140625 -12.640625 C 20.222656 -13.296875 20.273438 -13.710938 20.296875 -13.890625 L 20.1875 -13.890625 L 16.390625 0 L 11.234375 0 L 7.421875 -13.859375 L 7.296875 -13.859375 C 7.316406 -13.679688 7.375 -13.269531 7.46875 -12.625 C 7.5625 -11.976562 7.644531 -11.171875 7.71875 -10.203125 C 7.800781 -9.242188 7.84375 -8.304688 7.84375 -7.390625 L 7.84375 0 L 1.78125 0 L 1.78125 -20.515625 L 11.09375 -20.515625 L 14.1875 -8.671875 L 14.3125 -8.671875 L 17.375 -20.515625 L 26.359375 -20.515625 L 26.359375 0 Z M 19.828125 0 "/></g></g></g><g fill="#ce4863" fill-opacity="1"><g transform="translate(297.870055, 106.248201)"><g><path d="M 9.5625 -16.09375 C 11.96875 -16.09375 13.925781 -15.691406 15.4375 -14.890625 C 16.945312 -14.085938 17.703125 -12.78125 17.703125 -10.96875 L 17.703125 -4.828125 C 17.703125 -4.492188 17.78125 -4.21875 17.9375 -4 C 18.101562 -3.78125 18.34375 -3.671875 18.65625 -3.671875 L 19.734375 -3.671875 L 19.734375 -0.234375 C 19.671875 -0.191406 19.515625 -0.125 19.265625 -0.03125 C 19.023438 0.0507812 18.675781 0.132812 18.21875 0.21875 C 17.757812 0.3125 17.234375 0.359375 16.640625 0.359375 C 15.484375 0.359375 14.53125 0.1875 13.78125 -0.15625 C 13.039062 -0.507812 12.53125 -0.992188 12.25 -1.609375 C 11.5 -1.015625 10.65625 -0.535156 9.71875 -0.171875 C 8.78125 0.179688 7.6875 0.359375 6.4375 0.359375 C 2.738281 0.359375 0.890625 -1.109375 0.890625 -4.046875 C 0.890625 -5.578125 1.300781 -6.742188 2.125 -7.546875 C 2.957031 -8.359375 4.144531 -8.910156 5.6875 -9.203125 C 7.238281 -9.503906 9.269531 -9.65625 11.78125 -9.65625 L 11.78125 -10.4375 C 11.78125 -11.050781 11.566406 -11.515625 11.140625 -11.828125 C 10.710938 -12.148438 10.160156 -12.3125 9.484375 -12.3125 C 8.867188 -12.3125 8.335938 -12.203125 7.890625 -11.984375 C 7.441406 -11.765625 7.21875 -11.414062 7.21875 -10.9375 L 7.21875 -10.828125 L 1.375 -10.828125 C 1.351562 -10.921875 1.34375 -11.054688 1.34375 -11.234375 C 1.34375 -12.722656 2.050781 -13.90625 3.46875 -14.78125 C 4.894531 -15.65625 6.925781 -16.09375 9.5625 -16.09375 Z M 11.78125 -6.859375 C 10.082031 -6.859375 8.832031 -6.671875 8.03125 -6.296875 C 7.226562 -5.929688 6.828125 -5.441406 6.828125 -4.828125 C 6.828125 -3.835938 7.503906 -3.34375 8.859375 -3.34375 C 9.628906 -3.34375 10.304688 -3.550781 10.890625 -3.96875 C 11.484375 -4.382812 11.78125 -4.898438 11.78125 -5.515625 Z M 11.78125 -6.859375 "/></g></g></g><g fill="#ce4863" fill-opacity="1"><g transform="translate(318.704444, 106.248201)"><g><path d="M 12.640625 -16.09375 C 14.472656 -16.09375 15.84375 -15.585938 16.75 -14.578125 C 17.664062 -13.566406 18.125 -12.109375 18.125 -10.203125 L 18.125 0 L 12.1875 0 L 12.1875 -9.484375 C 12.1875 -10.160156 12.015625 -10.703125 11.671875 -11.109375 C 11.328125 -11.515625 10.835938 -11.71875 10.203125 -11.71875 C 9.460938 -11.71875 8.863281 -11.476562 8.40625 -11 C 7.945312 -10.519531 7.71875 -9.929688 7.71875 -9.234375 L 7.71875 0 L 1.78125 0 L 1.78125 -15.734375 L 6.640625 -15.734375 L 7.03125 -13.359375 C 7.644531 -14.191406 8.453125 -14.851562 9.453125 -15.34375 C 10.460938 -15.84375 11.523438 -16.09375 12.640625 -16.09375 Z M 12.640625 -16.09375 "/></g></g></g><g fill="#ce4863" fill-opacity="1"><g transform="translate(339.538835, 106.248201)"><g><path d="M 9.5625 -16.09375 C 11.96875 -16.09375 13.925781 -15.691406 15.4375 -14.890625 C 16.945312 -14.085938 17.703125 -12.78125 17.703125 -10.96875 L 17.703125 -4.828125 C 17.703125 -4.492188 17.78125 -4.21875 17.9375 -4 C 18.101562 -3.78125 18.34375 -3.671875 18.65625 -3.671875 L 19.734375 -3.671875 L 19.734375 -0.234375 C 19.671875 -0.191406 19.515625 -0.125 19.265625 -0.03125 C 19.023438 0.0507812 18.675781 0.132812 18.21875 0.21875 C 17.757812 0.3125 17.234375 0.359375 16.640625 0.359375 C 15.484375 0.359375 14.53125 0.1875 13.78125 -0.15625 C 13.039062 -0.507812 12.53125 -0.992188 12.25 -1.609375 C 11.5 -1.015625 10.65625 -0.535156 9.71875 -0.171875 C 8.78125 0.179688 7.6875 0.359375 6.4375 0.359375 C 2.738281 0.359375 0.890625 -1.109375 0.890625 -4.046875 C 0.890625 -5.578125 1.300781 -6.742188 2.125 -7.546875 C 2.957031 -8.359375 4.144531 -8.910156 5.6875 -9.203125 C 7.238281 -9.503906 9.269531 -9.65625 11.78125 -9.65625 L 11.78125 -10.4375 C 11.78125 -11.050781 11.566406 -11.515625 11.140625 -11.828125 C 10.710938 -12.148438 10.160156 -12.3125 9.484375 -12.3125 C 8.867188 -12.3125 8.335938 -12.203125 7.890625 -11.984375 C 7.441406 -11.765625 7.21875 -11.414062 7.21875 -10.9375 L 7.21875 -10.828125 L 1.375 -10.828125 C 1.351562 -10.921875 1.34375 -11.054688 1.34375 -11.234375 C 1.34375 -12.722656 2.050781 -13.90625 3.46875 -14.78125 C 4.894531 -15.65625 6.925781 -16.09375 9.5625 -16.09375 Z M 11.78125 -6.859375 C 10.082031 -6.859375 8.832031 -6.671875 8.03125 -6.296875 C 7.226562 -5.929688 6.828125 -5.441406 6.828125 -4.828125 C 6.828125 -3.835938 7.503906 -3.34375 8.859375 -3.34375 C 9.628906 -3.34375 10.304688 -3.550781 10.890625 -3.96875 C 11.484375 -4.382812 11.78125 -4.898438 11.78125 -5.515625 Z M 11.78125 -6.859375 "/></g></g></g><g fill="#ce4863" fill-opacity="1"><g transform="translate(360.373226, 106.248201)"><g><path d="M 19.5 -18.6875 C 19.5 -17.476562 19.191406 -16.546875 18.578125 -15.890625 C 17.972656 -15.234375 17.066406 -14.742188 15.859375 -14.421875 C 16.429688 -13.984375 16.878906 -13.472656 17.203125 -12.890625 C 17.535156 -12.304688 17.703125 -11.6875 17.703125 -11.03125 C 17.703125 -9.363281 17.070312 -8.101562 15.8125 -7.25 C 14.550781 -6.394531 12.976562 -5.96875 11.09375 -5.96875 L 8.828125 -5.96875 C 7.578125 -5.96875 6.953125 -5.675781 6.953125 -5.09375 C 6.953125 -4.820312 7.085938 -4.597656 7.359375 -4.421875 C 7.640625 -4.253906 8.128906 -4.171875 8.828125 -4.171875 L 14.1875 -4.171875 C 15.9375 -4.171875 17.257812 -3.710938 18.15625 -2.796875 C 19.050781 -1.890625 19.5 -0.671875 19.5 0.859375 C 19.5 1.992188 19.195312 2.96875 18.59375 3.78125 C 18 4.601562 17.195312 5.222656 16.1875 5.640625 C 15.175781 6.054688 14.070312 6.265625 12.875 6.265625 L 4.109375 6.265625 C 3.398438 6.265625 2.738281 6.09375 2.125 5.75 C 1.519531 5.414062 1.039062 4.953125 0.6875 4.359375 C 0.332031 3.773438 0.15625 3.128906 0.15625 2.421875 C 0.15625 1.640625 0.390625 0.9375 0.859375 0.3125 C 1.335938 -0.3125 1.9375 -0.785156 2.65625 -1.109375 C 2.175781 -1.441406 1.796875 -1.847656 1.515625 -2.328125 C 1.242188 -2.804688 1.109375 -3.320312 1.109375 -3.875 C 1.109375 -4.644531 1.394531 -5.34375 1.96875 -5.96875 C 2.539062 -6.601562 3.253906 -7.03125 4.109375 -7.25 C 3.335938 -7.738281 2.722656 -8.304688 2.265625 -8.953125 C 1.804688 -9.597656 1.578125 -10.28125 1.578125 -11 C 1.578125 -12.832031 2.316406 -14.140625 3.796875 -14.921875 C 5.273438 -15.703125 7.238281 -16.09375 9.6875 -16.09375 C 10.757812 -16.09375 11.625 -16.035156 12.28125 -15.921875 C 13.257812 -16.535156 13.890625 -17.09375 14.171875 -17.59375 C 14.460938 -18.101562 14.609375 -18.46875 14.609375 -18.6875 Z M 9.625 -13 C 8.96875 -13 8.429688 -12.828125 8.015625 -12.484375 C 7.597656 -12.148438 7.390625 -11.664062 7.390625 -11.03125 C 7.390625 -10.375 7.582031 -9.878906 7.96875 -9.546875 C 8.363281 -9.222656 8.914062 -9.0625 9.625 -9.0625 C 10.34375 -9.0625 10.90625 -9.222656 11.3125 -9.546875 C 11.71875 -9.878906 11.921875 -10.375 11.921875 -11.03125 C 11.921875 -11.6875 11.71875 -12.175781 11.3125 -12.5 C 10.90625 -12.832031 10.34375 -13 9.625 -13 Z M 7.328125 0 C 6.867188 0 6.492188 0.125 6.203125 0.375 C 5.921875 0.625 5.78125 0.976562 5.78125 1.4375 C 5.78125 1.882812 5.925781 2.25 6.21875 2.53125 C 6.519531 2.8125 6.890625 2.953125 7.328125 2.953125 L 11.984375 2.953125 C 12.421875 2.953125 12.789062 2.816406 13.09375 2.546875 C 13.40625 2.273438 13.5625 1.910156 13.5625 1.453125 C 13.5625 1.003906 13.410156 0.648438 13.109375 0.390625 C 12.816406 0.128906 12.441406 0 11.984375 0 Z M 7.328125 0 "/></g></g></g><g fill="#ce4863" fill-opacity="1"><g transform="translate(381.207612, 106.248201)"><g><path d="M 9.921875 -16.09375 C 12.804688 -16.09375 15.007812 -15.414062 16.53125 -14.0625 C 18.050781 -12.71875 18.8125 -10.65625 18.8125 -7.875 L 18.8125 -6.859375 L 7 -6.859375 C 7 -5.722656 7.253906 -4.863281 7.765625 -4.28125 C 8.273438 -3.707031 9.078125 -3.421875 10.171875 -3.421875 C 11.160156 -3.421875 11.890625 -3.628906 12.359375 -4.046875 C 12.828125 -4.472656 13.0625 -5.03125 13.0625 -5.71875 L 18.8125 -5.71875 C 18.8125 -3.8125 18.082031 -2.320312 16.625 -1.25 C 15.175781 -0.175781 13.0625 0.359375 10.28125 0.359375 C 7.363281 0.359375 5.097656 -0.320312 3.484375 -1.6875 C 1.878906 -3.050781 1.078125 -5.113281 1.078125 -7.875 C 1.078125 -10.570312 1.859375 -12.613281 3.421875 -14 C 4.992188 -15.394531 7.160156 -16.09375 9.921875 -16.09375 Z M 10.171875 -12.3125 C 8.296875 -12.3125 7.25 -11.425781 7.03125 -9.65625 L 12.8125 -9.65625 C 12.8125 -10.46875 12.578125 -11.113281 12.109375 -11.59375 C 11.648438 -12.070312 11.003906 -12.3125 10.171875 -12.3125 Z M 10.171875 -12.3125 "/></g></g></g><g fill="#ce4863" fill-opacity="1"><g transform="translate(402.042003, 106.248201)"><g><path d="M 22.6875 -16.09375 C 24.476562 -16.09375 25.816406 -15.582031 26.703125 -14.5625 C 27.597656 -13.539062 28.046875 -12.085938 28.046875 -10.203125 L 28.046875 0 L 22.125 0 L 22.125 -9.484375 C 22.125 -10.160156 21.957031 -10.703125 21.625 -11.109375 C 21.300781 -11.515625 20.84375 -11.71875 20.25 -11.71875 C 19.550781 -11.71875 18.984375 -11.476562 18.546875 -11 C 18.109375 -10.519531 17.890625 -9.929688 17.890625 -9.234375 L 17.890625 0 L 11.953125 0 L 11.953125 -9.484375 C 11.953125 -10.160156 11.785156 -10.703125 11.453125 -11.109375 C 11.128906 -11.515625 10.671875 -11.71875 10.078125 -11.71875 C 9.378906 -11.71875 8.8125 -11.476562 8.375 -11 C 7.9375 -10.519531 7.71875 -9.929688 7.71875 -9.234375 L 7.71875 0 L 1.78125 0 L 1.78125 -15.734375 L 6.640625 -15.734375 L 7.03125 -13.390625 C 7.632812 -14.222656 8.425781 -14.878906 9.40625 -15.359375 C 10.382812 -15.847656 11.421875 -16.09375 12.515625 -16.09375 C 14.878906 -16.09375 16.472656 -15.191406 17.296875 -13.390625 C 17.910156 -14.222656 18.695312 -14.878906 19.65625 -15.359375 C 20.625 -15.847656 21.632812 -16.09375 22.6875 -16.09375 Z M 22.6875 -16.09375 "/></g></g></g><g fill="#ce4863" fill-opacity="1"><g transform="translate(432.801629, 106.248201)"><g><path d="M 9.921875 -16.09375 C 12.804688 -16.09375 15.007812 -15.414062 16.53125 -14.0625 C 18.050781 -12.71875 18.8125 -10.65625 18.8125 -7.875 L 18.8125 -6.859375 L 7 -6.859375 C 7 -5.722656 7.253906 -4.863281 7.765625 -4.28125 C 8.273438 -3.707031 9.078125 -3.421875 10.171875 -3.421875 C 11.160156 -3.421875 11.890625 -3.628906 12.359375 -4.046875 C 12.828125 -4.472656 13.0625 -5.03125 13.0625 -5.71875 L 18.8125 -5.71875 C 18.8125 -3.8125 18.082031 -2.320312 16.625 -1.25 C 15.175781 -0.175781 13.0625 0.359375 10.28125 0.359375 C 7.363281 0.359375 5.097656 -0.320312 3.484375 -1.6875 C 1.878906 -3.050781 1.078125 -5.113281 1.078125 -7.875 C 1.078125 -10.570312 1.859375 -12.613281 3.421875 -14 C 4.992188 -15.394531 7.160156 -16.09375 9.921875 -16.09375 Z M 10.171875 -12.3125 C 8.296875 -12.3125 7.25 -11.425781 7.03125 -9.65625 L 12.8125 -9.65625 C 12.8125 -10.46875 12.578125 -11.113281 12.109375 -11.59375 C 11.648438 -12.070312 11.003906 -12.3125 10.171875 -12.3125 Z M 10.171875 -12.3125 "/></g></g></g><g fill="#ce4863" fill-opacity="1"><g transform="translate(453.63602, 106.248201)"><g><path d="M 12.640625 -16.09375 C 14.472656 -16.09375 15.84375 -15.585938 16.75 -14.578125 C 17.664062 -13.566406 18.125 -12.109375 18.125 -10.203125 L 18.125 0 L 12.1875 0 L 12.1875 -9.484375 C 12.1875 -10.160156 12.015625 -10.703125 11.671875 -11.109375 C 11.328125 -11.515625 10.835938 -11.71875 10.203125 -11.71875 C 9.460938 -11.71875 8.863281 -11.476562 8.40625 -11 C 7.945312 -10.519531 7.71875 -9.929688 7.71875 -9.234375 L 7.71875 0 L 1.78125 0 L 1.78125 -15.734375 L 6.640625 -15.734375 L 7.03125 -13.359375 C 7.644531 -14.191406 8.453125 -14.851562 9.453125 -15.34375 C 10.460938 -15.84375 11.523438 -16.09375 12.640625 -16.09375 Z M 12.640625 -16.09375 "/></g></g></g><g fill="#ce4863" fill-opacity="1"><g transform="translate(474.4704, 106.248201)"><g><path d="M 12.28125 -15.734375 L 12.28125 -11.71875 L 8.9375 -11.71875 L 8.9375 -5.71875 C 8.9375 -5.007812 9.054688 -4.488281 9.296875 -4.15625 C 9.535156 -3.832031 9.972656 -3.671875 10.609375 -3.671875 L 12.28125 -3.671875 L 12.28125 -0.171875 C 11.800781 -0.015625 11.179688 0.109375 10.421875 0.203125 C 9.671875 0.304688 9.019531 0.359375 8.46875 0.359375 C 6.71875 0.359375 5.367188 0.0390625 4.421875 -0.59375 C 3.484375 -1.226562 3.015625 -2.3125 3.015625 -3.84375 L 3.015625 -11.71875 L 0.8125 -11.71875 L 0.8125 -15.734375 L 3.25 -15.734375 L 4.53125 -20.515625 L 8.9375 -20.515625 L 8.9375 -15.734375 Z M 12.28125 -15.734375 "/></g></g></g></svg>