<svg xmlns="http://www.w3.org/2000/svg" xmlns:xlink="http://www.w3.org/1999/xlink" width="308" zoomAndPan="magnify" viewBox="0 0 230.87999 231" height="308" preserveAspectRatio="xMidYMid meet" version="1.0"><path fill="#ce4863" d="M 185.027344 34.796875 C 183.796875 33.625 182.539062 32.484375 181.253906 31.375 C 179.96875 30.269531 178.660156 29.191406 177.320312 28.148438 C 175.984375 27.101562 174.621094 26.089844 173.234375 25.113281 C 171.847656 24.136719 170.433594 23.191406 169 22.285156 C 167.566406 21.375 166.113281 20.503906 164.636719 19.667969 C 163.160156 18.832031 161.664062 18.03125 160.148438 17.265625 C 158.632812 16.503906 157.097656 15.777344 155.546875 15.089844 C 153.996094 14.402344 152.429688 13.753906 150.84375 13.140625 C 149.261719 12.53125 147.664062 11.957031 146.054688 11.425781 C 144.441406 10.890625 142.816406 10.398438 141.183594 9.945312 C 139.546875 9.492188 137.902344 9.082031 136.246094 8.707031 C 134.589844 8.335938 132.925781 8.003906 131.253906 7.714844 C 129.582031 7.425781 127.902344 7.175781 126.21875 6.964844 C 124.535156 6.757812 122.84375 6.59375 121.152344 6.46875 C 119.460938 6.339844 117.765625 6.257812 116.070312 6.214844 C 114.371094 6.175781 112.675781 6.171875 110.980469 6.214844 C 109.28125 6.257812 107.585938 6.339844 105.894531 6.464844 C 104.203125 6.589844 102.515625 6.753906 100.828125 6.960938 C 99.144531 7.167969 97.464844 7.417969 95.792969 7.707031 C 94.121094 7.996094 92.457031 8.328125 90.800781 8.699219 C 89.144531 9.070312 87.5 9.484375 85.863281 9.933594 C 84.226562 10.386719 82.605469 10.878906 80.992188 11.410156 C 79.382812 11.945312 77.785156 12.515625 76.199219 13.125 C 74.617188 13.734375 73.050781 14.386719 71.496094 15.070312 C 69.945312 15.757812 68.410156 16.484375 66.894531 17.246094 C 65.378906 18.011719 63.882812 18.808594 62.40625 19.644531 C 60.929688 20.480469 59.472656 21.355469 58.039062 22.261719 C 56.605469 23.167969 55.195312 24.113281 53.808594 25.089844 C 52.417969 26.066406 51.054688 27.078125 49.71875 28.121094 C 48.378906 29.164062 47.066406 30.238281 45.78125 31.347656 C 44.496094 32.457031 43.238281 33.597656 42.011719 34.765625 C 40.78125 35.9375 39.582031 37.136719 38.410156 38.363281 C 37.238281 39.59375 36.101562 40.851562 34.992188 42.136719 C 33.882812 43.421875 32.804688 44.730469 31.761719 46.070312 C 30.71875 47.40625 29.707031 48.769531 28.726562 50.15625 C 27.75 51.542969 26.808594 52.953125 25.898438 54.386719 C 24.992188 55.820312 24.117188 57.277344 23.28125 58.753906 C 22.445312 60.230469 21.644531 61.726562 20.882812 63.242188 C 20.117188 64.757812 19.390625 66.292969 18.703125 67.84375 C 18.015625 69.394531 17.367188 70.960938 16.753906 72.546875 C 16.144531 74.128906 15.574219 75.726562 15.039062 77.335938 C 14.507812 78.949219 14.015625 80.570312 13.5625 82.207031 C 13.109375 83.84375 12.695312 85.488281 12.324219 87.144531 C 11.949219 88.800781 11.621094 90.464844 11.328125 92.136719 C 11.039062 93.808594 10.789062 95.488281 10.582031 97.171875 C 10.375 98.855469 10.207031 100.542969 10.082031 102.238281 C 9.957031 103.929688 9.871094 105.625 9.832031 107.320312 C 9.789062 109.019531 9.789062 110.714844 9.828125 112.410156 C 9.871094 114.109375 9.953125 115.800781 10.078125 117.496094 C 10.203125 119.1875 10.367188 120.875 10.574219 122.5625 C 10.785156 124.246094 11.03125 125.921875 11.320312 127.597656 C 11.613281 129.269531 11.941406 130.933594 12.3125 132.589844 C 12.683594 134.246094 13.097656 135.890625 13.550781 137.527344 C 14 139.160156 14.492188 140.785156 15.027344 142.398438 C 15.558594 144.007812 16.128906 145.605469 16.738281 147.191406 C 17.351562 148.773438 18 150.339844 18.6875 151.894531 C 19.375 153.445312 20.097656 154.980469 20.863281 156.496094 C 21.625 158.011719 22.425781 159.507812 23.261719 160.984375 C 24.097656 162.460938 24.96875 163.917969 25.875 165.351562 C 26.785156 166.785156 27.726562 168.195312 28.703125 169.582031 C 29.679688 170.972656 30.691406 172.335938 31.734375 173.671875 C 32.777344 175.011719 33.855469 176.324219 34.964844 177.609375 C 36.070312 178.894531 37.210938 180.152344 38.378906 181.378906 C 39.550781 182.609375 40.75 183.808594 41.980469 184.980469 C 43.207031 186.152344 44.464844 187.289062 45.75 188.398438 C 47.035156 189.507812 48.347656 190.585938 49.683594 191.628906 C 51.019531 192.671875 52.382812 193.683594 53.769531 194.660156 C 55.160156 195.640625 56.570312 196.582031 58.003906 197.492188 C 59.4375 198.398438 60.890625 199.269531 62.367188 200.109375 C 63.84375 200.945312 65.339844 201.746094 66.855469 202.507812 C 68.371094 203.273438 69.90625 203.996094 71.457031 204.6875 C 73.007812 205.375 74.578125 206.023438 76.160156 206.632812 C 77.742188 207.246094 79.339844 207.816406 80.953125 208.351562 C 82.5625 208.882812 84.1875 209.375 85.824219 209.828125 C 87.457031 210.28125 89.105469 210.695312 90.757812 211.066406 C 92.414062 211.4375 94.078125 211.769531 95.75 212.0625 C 97.425781 212.351562 99.101562 212.601562 100.785156 212.808594 C 102.472656 213.015625 104.160156 213.183594 105.851562 213.308594 C 107.542969 213.433594 109.238281 213.515625 110.9375 213.558594 C 112.632812 213.601562 114.328125 213.601562 116.027344 213.5625 C 117.722656 213.519531 119.417969 213.4375 121.109375 213.3125 C 122.800781 213.1875 124.492188 213.019531 126.175781 212.8125 C 127.859375 212.605469 129.539062 212.359375 131.210938 212.066406 C 132.882812 211.777344 134.546875 211.449219 136.203125 211.078125 C 137.859375 210.703125 139.503906 210.292969 141.140625 209.839844 C 142.777344 209.386719 144.398438 208.894531 146.011719 208.363281 C 147.625 207.832031 149.222656 207.261719 150.804688 206.648438 C 152.386719 206.039062 153.957031 205.390625 155.507812 204.703125 C 157.058594 204.015625 158.59375 203.289062 160.109375 202.527344 C 161.625 201.765625 163.121094 200.964844 164.597656 200.128906 C 166.074219 199.292969 167.53125 198.421875 168.964844 197.511719 C 170.398438 196.605469 171.808594 195.664062 173.199219 194.6875 C 174.585938 193.710938 175.949219 192.699219 177.285156 191.65625 C 178.625 190.613281 179.9375 189.535156 181.222656 188.425781 C 182.507812 187.320312 183.765625 186.179688 184.996094 185.007812 C 186.222656 183.839844 187.425781 182.640625 188.59375 181.410156 C 189.765625 180.183594 190.90625 178.925781 192.011719 177.640625 C 193.121094 176.355469 194.199219 175.042969 195.242188 173.707031 C 196.289062 172.367188 197.296875 171.007812 198.277344 169.617188 C 199.253906 168.230469 200.195312 166.820312 201.105469 165.386719 C 202.011719 163.953125 202.886719 162.5 203.722656 161.023438 C 204.558594 159.546875 205.359375 158.050781 206.125 156.535156 C 206.886719 155.015625 207.613281 153.484375 208.300781 151.933594 C 208.988281 150.382812 209.636719 148.8125 210.25 147.230469 C 210.859375 145.648438 211.433594 144.050781 211.964844 142.4375 C 212.496094 140.828125 212.992188 139.203125 213.445312 137.566406 C 213.898438 135.933594 214.308594 134.285156 214.679688 132.628906 C 215.054688 130.976562 215.386719 129.3125 215.675781 127.636719 C 215.964844 125.964844 216.214844 124.289062 216.421875 122.605469 C 216.632812 120.917969 216.796875 119.230469 216.921875 117.539062 C 217.046875 115.847656 217.132812 114.152344 217.175781 112.453125 C 217.214844 110.757812 217.214844 109.0625 217.175781 107.363281 C 217.132812 105.667969 217.050781 103.972656 216.925781 102.28125 C 216.800781 100.585938 216.636719 98.898438 216.429688 97.214844 C 216.222656 95.53125 215.972656 93.851562 215.683594 92.179688 C 215.394531 90.507812 215.0625 88.84375 214.691406 87.1875 C 214.320312 85.53125 213.90625 83.886719 213.457031 82.25 C 213.003906 80.613281 212.511719 78.988281 211.980469 77.378906 C 211.445312 75.765625 210.875 74.167969 210.265625 72.585938 C 209.65625 71.003906 209.003906 69.433594 208.316406 67.882812 C 207.628906 66.332031 206.90625 64.796875 206.144531 63.28125 C 205.378906 61.765625 204.582031 60.269531 203.746094 58.792969 C 202.90625 57.316406 202.035156 55.859375 201.128906 54.425781 C 200.21875 52.992188 199.277344 51.578125 198.300781 50.191406 C 197.324219 48.804688 196.3125 47.441406 195.269531 46.101562 C 194.226562 44.765625 193.148438 43.453125 192.042969 42.167969 C 190.933594 40.882812 189.792969 39.625 188.625 38.394531 C 187.453125 37.167969 186.253906 35.964844 185.027344 34.796875 Z M 119.023438 22.554688 C 119.238281 22.742188 119.457031 22.949219 119.671875 23.171875 L 119.675781 23.175781 C 124.0625 27.6875 127.871094 38.167969 128.9375 48.910156 C 129.511719 54.660156 129.5 63.730469 128.917969 78.503906 C 128.765625 82.421875 128.679688 85.714844 128.726562 85.824219 C 128.804688 86 144.765625 94.9375 145.070312 94.972656 L 158.929688 102.699219 L 159.117188 102.816406 C 159.550781 103.09375 159.953125 103.300781 160.15625 103.375 L 173.101562 110.589844 L 181.558594 115.230469 C 190.808594 120.304688 191.539062 120.8125 192.0625 122.597656 C 192.421875 123.828125 192.285156 134.042969 191.898438 134.867188 C 191.472656 135.765625 190.695312 136.421875 189.617188 136.816406 C 188.523438 137.210938 188.449219 137.195312 180.375 134.804688 C 177.449219 133.9375 169.324219 131.527344 162.320312 129.453125 C 155.3125 127.378906 148.367188 125.320312 146.882812 124.867188 L 127.714844 119.105469 L 127.644531 127.175781 C 127.140625 139.457031 126.039062 152.996094 124.695312 163.292969 L 124.121094 167.710938 L 135.949219 177.800781 C 150.078125 189.851562 148.949219 188.519531 148.972656 193.082031 C 148.992188 196.457031 148.628906 197.78125 147.453125 198.613281 C 147.023438 198.914062 146.273438 199.234375 145.792969 199.324219 C 144.832031 199.503906 144.664062 199.453125 132.839844 195.078125 C 129.175781 193.71875 125.125 192.226562 123.835938 191.75 C 122.152344 191.132812 121.058594 190.882812 119.941406 190.886719 L 118.382812 190.894531 L 117.773438 191.984375 C 116.9375 193.488281 115.125 195.207031 113.941406 195.625 C 112.785156 196.035156 111.503906 195.988281 110.359375 195.503906 C 109.273438 195.039062 107.640625 193.378906 106.796875 191.863281 L 106.175781 190.742188 L 104.519531 190.734375 C 103.144531 190.726562 102.117188 190.992188 98.398438 192.277344 C 85.484375 196.734375 80.1875 198.515625 79.636719 198.597656 C 79.300781 198.652344 78.597656 198.546875 78.074219 198.367188 C 76.023438 197.664062 75.476562 196.308594 75.601562 192.222656 C 75.738281 187.652344 74.546875 188.988281 88.988281 177.226562 L 101.066406 167.394531 L 100.941406 166.570312 C 99.996094 160.101562 98.875 142.75 98.53125 129.199219 L 98.542969 118.726562 L 89.546875 121.1875 L 81.546875 123.464844 L 75.585938 125.085938 C 68.367188 127.058594 50.796875 131.820312 43.136719 133.878906 C 37.308594 135.445312 36.71875 135.492188 35.363281 134.546875 C 33.863281 133.496094 33.789062 133.101562 33.875 126.753906 C 33.949219 120.972656 33.972656 120.78125 34.664062 119.722656 C 35.449219 118.523438 34.664062 118.980469 49.078125 111.429688 L 53.484375 109.121094 L 66.441406 102.332031 C 66.445312 102.339844 66.449219 102.359375 66.453125 102.363281 C 66.472656 102.382812 66.984375 102.105469 67.59375 101.742188 L 67.773438 101.636719 L 81.890625 94.234375 C 83.21875 93.640625 98.222656 85.664062 98.328125 85.496094 C 98.40625 85.375 98.414062 80.792969 98.34375 75.320312 C 98.140625 58.917969 98.449219 51.445312 99.597656 44.933594 C 101.648438 33.316406 106.664062 23.335938 111.632812 20.992188 C 114.210938 19.777344 116.394531 20.242188 119.019531 22.554688 Z M 119.023438 22.554688 " fill-opacity="1" fill-rule="nonzero"/><path fill="#ce4863" d="M 185.027344 34.796875 C 183.796875 33.625 182.539062 32.484375 181.253906 31.375 C 179.96875 30.269531 178.660156 29.191406 177.320312 28.148438 C 175.984375 27.101562 174.621094 26.089844 173.234375 25.113281 C 171.847656 24.136719 170.433594 23.191406 169 22.285156 C 167.566406 21.375 166.113281 20.503906 164.636719 19.667969 C 163.160156 18.832031 161.664062 18.03125 160.148438 17.265625 C 158.632812 16.503906 157.097656 15.777344 155.546875 15.089844 C 153.996094 14.402344 152.429688 13.753906 150.84375 13.140625 C 149.261719 12.53125 147.664062 11.957031 146.054688 11.425781 C 144.441406 10.890625 142.816406 10.398438 141.183594 9.945312 C 139.546875 9.492188 137.902344 9.082031 136.246094 8.707031 C 134.589844 8.335938 132.925781 8.003906 131.253906 7.714844 C 129.582031 7.425781 127.902344 7.175781 126.21875 6.964844 C 124.535156 6.757812 122.84375 6.59375 121.152344 6.46875 C 119.460938 6.339844 117.765625 6.257812 116.070312 6.214844 C 114.371094 6.175781 112.675781 6.171875 110.980469 6.214844 C 109.28125 6.257812 107.585938 6.339844 105.894531 6.464844 C 104.203125 6.589844 102.515625 6.753906 100.828125 6.960938 C 99.144531 7.167969 97.464844 7.417969 95.792969 7.707031 C 94.121094 7.996094 92.457031 8.328125 90.800781 8.699219 C 89.144531 9.070312 87.5 9.484375 85.863281 9.933594 C 84.226562 10.386719 82.605469 10.878906 80.992188 11.410156 C 79.382812 11.945312 77.785156 12.515625 76.199219 13.125 C 74.617188 13.734375 73.050781 14.386719 71.496094 15.070312 C 69.945312 15.757812 68.410156 16.484375 66.894531 17.246094 C 65.378906 18.011719 63.882812 18.808594 62.40625 19.644531 C 60.929688 20.480469 59.472656 21.355469 58.039062 22.261719 C 56.605469 23.167969 55.195312 24.113281 53.808594 25.089844 C 52.417969 26.066406 51.054688 27.078125 49.71875 28.121094 C 48.378906 29.164062 47.066406 30.238281 45.78125 31.347656 C 44.496094 32.457031 43.238281 33.597656 42.011719 34.765625 C 40.78125 35.9375 39.582031 37.136719 38.410156 38.363281 C 37.238281 39.59375 36.101562 40.851562 34.992188 42.136719 C 33.882812 43.421875 32.804688 44.730469 31.761719 46.070312 C 30.71875 47.40625 29.707031 48.769531 28.726562 50.15625 C 27.75 51.542969 26.808594 52.953125 25.898438 54.386719 C 24.992188 55.820312 24.117188 57.277344 23.28125 58.753906 C 22.445312 60.230469 21.644531 61.726562 20.882812 63.242188 C 20.117188 64.757812 19.390625 66.292969 18.703125 67.84375 C 18.015625 69.394531 17.367188 70.960938 16.753906 72.546875 C 16.144531 74.128906 15.574219 75.726562 15.039062 77.335938 C 14.507812 78.949219 14.015625 80.570312 13.5625 82.207031 C 13.109375 83.84375 12.695312 85.488281 12.324219 87.144531 C 11.949219 88.800781 11.621094 90.464844 11.328125 92.136719 C 11.039062 93.808594 10.789062 95.488281 10.582031 97.171875 C 10.375 98.855469 10.207031 100.542969 10.082031 102.238281 C 9.957031 103.929688 9.871094 105.625 9.832031 107.320312 C 9.789062 109.019531 9.789062 110.714844 9.828125 112.410156 C 9.871094 114.109375 9.953125 115.800781 10.078125 117.496094 C 10.203125 119.1875 10.367188 120.875 10.574219 122.5625 C 10.785156 124.246094 11.03125 125.921875 11.320312 127.597656 C 11.613281 129.269531 11.941406 130.933594 12.3125 132.589844 C 12.683594 134.246094 13.097656 135.890625 13.550781 137.527344 C 14 139.160156 14.492188 140.785156 15.027344 142.398438 C 15.558594 144.007812 16.128906 145.605469 16.738281 147.191406 C 17.351562 148.773438 18 150.339844 18.6875 151.894531 C 19.375 153.445312 20.097656 154.980469 20.863281 156.496094 C 21.625 158.011719 22.425781 159.507812 23.261719 160.984375 C 24.097656 162.460938 24.96875 163.917969 25.875 165.351562 C 26.785156 166.785156 27.726562 168.195312 28.703125 169.582031 C 29.679688 170.972656 30.691406 172.335938 31.734375 173.671875 C 32.777344 175.011719 33.855469 176.324219 34.964844 177.609375 C 36.070312 178.894531 37.210938 180.152344 38.378906 181.378906 C 39.550781 182.609375 40.75 183.808594 41.980469 184.980469 C 43.207031 186.152344 44.464844 187.289062 45.75 188.398438 C 47.035156 189.507812 48.347656 190.585938 49.683594 191.628906 C 51.019531 192.671875 52.382812 193.683594 53.769531 194.660156 C 55.160156 195.640625 56.570312 196.582031 58.003906 197.492188 C 59.4375 198.398438 60.890625 199.269531 62.367188 200.109375 C 63.84375 200.945312 65.339844 201.746094 66.855469 202.507812 C 68.371094 203.273438 69.90625 203.996094 71.457031 204.6875 C 73.007812 205.375 74.578125 206.023438 76.160156 206.632812 C 77.742188 207.246094 79.339844 207.816406 80.953125 208.351562 C 82.5625 208.882812 84.1875 209.375 85.824219 209.828125 C 87.457031 210.28125 89.105469 210.695312 90.757812 211.066406 C 92.414062 211.4375 94.078125 211.769531 95.75 212.0625 C 97.425781 212.351562 99.101562 212.601562 100.785156 212.808594 C 102.472656 213.015625 104.160156 213.183594 105.851562 213.308594 C 107.542969 213.433594 109.238281 213.515625 110.9375 213.558594 C 112.632812 213.601562 114.328125 213.601562 116.027344 213.5625 C 117.722656 213.519531 119.417969 213.4375 121.109375 213.3125 C 122.800781 213.1875 124.492188 213.019531 126.175781 212.8125 C 127.859375 212.605469 129.539062 212.359375 131.210938 212.066406 C 132.882812 211.777344 134.546875 211.449219 136.203125 211.078125 C 137.859375 210.703125 139.503906 210.292969 141.140625 209.839844 C 142.777344 209.386719 144.398438 208.894531 146.011719 208.363281 C 147.625 207.832031 149.222656 207.261719 150.804688 206.648438 C 152.386719 206.039062 153.957031 205.390625 155.507812 204.703125 C 157.058594 204.015625 158.59375 203.289062 160.109375 202.527344 C 161.625 201.765625 163.121094 200.964844 164.597656 200.128906 C 166.074219 199.292969 167.53125 198.421875 168.964844 197.511719 C 170.398438 196.605469 171.808594 195.664062 173.199219 194.6875 C 174.585938 193.710938 175.949219 192.699219 177.285156 191.65625 C 178.625 190.613281 179.9375 189.535156 181.222656 188.425781 C 182.507812 187.320312 183.765625 186.179688 184.996094 185.007812 C 186.222656 183.839844 187.425781 182.640625 188.59375 181.410156 C 189.765625 180.183594 190.90625 178.925781 192.011719 177.640625 C 193.121094 176.355469 194.199219 175.042969 195.242188 173.707031 C 196.289062 172.367188 197.296875 171.007812 198.277344 169.617188 C 199.253906 168.230469 200.195312 166.820312 201.105469 165.386719 C 202.011719 163.953125 202.886719 162.5 203.722656 161.023438 C 204.558594 159.546875 205.359375 158.050781 206.125 156.535156 C 206.886719 155.015625 207.613281 153.484375 208.300781 151.933594 C 208.988281 150.382812 209.636719 148.8125 210.25 147.230469 C 210.859375 145.648438 211.433594 144.050781 211.964844 142.4375 C 212.496094 140.828125 212.992188 139.203125 213.445312 137.566406 C 213.898438 135.933594 214.308594 134.285156 214.679688 132.628906 C 215.054688 130.976562 215.386719 129.3125 215.675781 127.636719 C 215.964844 125.964844 216.214844 124.289062 216.421875 122.605469 C 216.632812 120.917969 216.796875 119.230469 216.921875 117.539062 C 217.046875 115.847656 217.132812 114.152344 217.175781 112.453125 C 217.214844 110.757812 217.214844 109.0625 217.175781 107.363281 C 217.132812 105.667969 217.050781 103.972656 216.925781 102.28125 C 216.800781 100.585938 216.636719 98.898438 216.429688 97.214844 C 216.222656 95.53125 215.972656 93.851562 215.683594 92.179688 C 215.394531 90.507812 215.0625 88.84375 214.691406 87.1875 C 214.320312 85.53125 213.90625 83.886719 213.457031 82.25 C 213.003906 80.613281 212.511719 78.988281 211.980469 77.378906 C 211.445312 75.765625 210.875 74.167969 210.265625 72.585938 C 209.65625 71.003906 209.003906 69.433594 208.316406 67.882812 C 207.628906 66.332031 206.90625 64.796875 206.144531 63.28125 C 205.378906 61.765625 204.582031 60.269531 203.746094 58.792969 C 202.90625 57.316406 202.035156 55.859375 201.128906 54.425781 C 200.21875 52.992188 199.277344 51.578125 198.300781 50.191406 C 197.324219 48.804688 196.3125 47.441406 195.269531 46.101562 C 194.226562 44.765625 193.148438 43.453125 192.042969 42.167969 C 190.933594 40.882812 189.792969 39.625 188.625 38.394531 C 187.453125 37.167969 186.253906 35.964844 185.027344 34.796875 Z M 119.023438 22.554688 C 119.238281 22.742188 119.457031 22.949219 119.671875 23.171875 L 119.675781 23.175781 C 124.0625 27.6875 127.871094 38.167969 128.9375 48.910156 C 129.511719 54.660156 129.5 63.730469 128.917969 78.503906 C 128.765625 82.421875 128.679688 85.714844 128.726562 85.824219 C 128.804688 86 144.765625 94.9375 145.070312 94.972656 L 158.929688 102.699219 L 159.117188 102.816406 C 159.550781 103.09375 159.953125 103.300781 160.15625 103.375 L 173.101562 110.589844 L 181.558594 115.230469 C 190.808594 120.304688 191.539062 120.8125 192.0625 122.597656 C 192.421875 123.828125 192.285156 134.042969 191.898438 134.867188 C 191.472656 135.765625 190.695312 136.421875 189.617188 136.816406 C 188.523438 137.210938 188.449219 137.195312 180.375 134.804688 C 177.449219 133.9375 169.324219 131.527344 162.320312 129.453125 C 155.3125 127.378906 148.367188 125.320312 146.882812 124.867188 L 127.714844 119.105469 L 127.644531 127.175781 C 127.140625 139.457031 126.039062 152.996094 124.695312 163.292969 L 124.121094 167.710938 L 135.949219 177.800781 C 150.078125 189.851562 148.949219 188.519531 148.972656 193.082031 C 148.992188 196.457031 148.628906 197.78125 147.453125 198.613281 C 147.023438 198.914062 146.273438 199.234375 145.792969 199.324219 C 144.832031 199.503906 144.664062 199.453125 132.839844 195.078125 C 129.175781 193.71875 125.125 192.226562 123.835938 191.75 C 122.152344 191.132812 121.058594 190.882812 119.941406 190.886719 L 118.382812 190.894531 L 117.773438 191.984375 C 116.9375 193.488281 115.125 195.207031 113.941406 195.625 C 112.785156 196.035156 111.503906 195.988281 110.359375 195.503906 C 109.273438 195.039062 107.640625 193.378906 106.796875 191.863281 L 106.175781 190.742188 L 104.519531 190.734375 C 103.144531 190.726562 102.117188 190.992188 98.398438 192.277344 C 85.484375 196.734375 80.1875 198.515625 79.636719 198.597656 C 79.300781 198.652344 78.597656 198.546875 78.074219 198.367188 C 76.023438 197.664062 75.476562 196.308594 75.601562 192.222656 C 75.738281 187.652344 74.546875 188.988281 88.988281 177.226562 L 101.066406 167.394531 L 100.941406 166.570312 C 99.996094 160.101562 98.875 142.75 98.53125 129.199219 L 98.542969 118.726562 L 89.546875 121.1875 L 81.546875 123.464844 L 75.585938 125.085938 C 68.367188 127.058594 50.796875 131.820312 43.136719 133.878906 C 37.308594 135.445312 36.71875 135.492188 35.363281 134.546875 C 33.863281 133.496094 33.789062 133.101562 33.875 126.753906 C 33.949219 120.972656 33.972656 120.78125 34.664062 119.722656 C 35.449219 118.523438 34.664062 118.980469 49.078125 111.429688 L 53.484375 109.121094 L 66.441406 102.332031 C 66.445312 102.339844 66.449219 102.359375 66.453125 102.363281 C 66.472656 102.382812 66.984375 102.105469 67.59375 101.742188 L 67.773438 101.636719 L 81.890625 94.234375 C 83.21875 93.640625 98.222656 85.664062 98.328125 85.496094 C 98.40625 85.375 98.414062 80.792969 98.34375 75.320312 C 98.140625 58.917969 98.449219 51.445312 99.597656 44.933594 C 101.648438 33.316406 106.664062 23.335938 111.632812 20.992188 C 114.210938 19.777344 116.394531 20.242188 119.019531 22.554688 Z M 119.023438 22.554688 " fill-opacity="1" fill-rule="nonzero"/></svg>